<svg xmlns="http://www.w3.org/2000/svg" fill="none" viewBox="0 0 64 64">
  <g clip-path="url(#a)">
    <path fill="url(#b)" d="M48 0H16A16 16 0 0 0 0 16v32a16 16 0 0 0 16 16h32a16 16 0 0 0 16-16V16A16 16 0 0 0 48 0"/>
    <path stroke="url(#c)" d="M48 2H16A14 14 0 0 0 2 16v32a14 14 0 0 0 14 14h32a14 14 0 0 0 14-14V16A14 14 0 0 0 48 2Z"/>
    <path fill="#f8f2ff" d="M18.5 41C12.7 41 8 36.52 8 31c0-4.9 3.74-9.05 8.82-9.86C18.84 14.8 24.6 10 31.32 10c8.18 0 14.95 5.95 16.12 13.72 4.66.58 8.56 4.54 8.56 9.46C56 37.5 52.92 41 48.58 41z"/>
    <path fill="#240b3e" d="M31.88 19.19c0-.51.31-.97.75-1.12l5.94-2.01c.7-.24 1.43.32 1.43 1.11v4.66c0 .68-.43 1.28-1.04 1.44l-5.16 1.28v7.17c0 2.85-2.53 4.68-5.37 4.68-2.46 0-4.43-1.52-4.43-3.8 0-2.4 2.04-4.05 5.08-4.05 1.04 0 2.01.19 2.8.55z"/>
    <path fill="#f8f2ff" d="M28 41h6v4h-6z"/>
    <path fill="#f8f2ff" d="M32.38 55.65a2 2 0 0 1-2.76.05l-7.85-7.23A2 2 0 0 1 23.12 45h15.1a2 2 0 0 1 1.41 3.42z"/>
    <mask id="d" width="25" height="12" x="18" y="45" maskUnits="userSpaceOnUse" style="mask-type:alpha">
      <path fill="#f8f2ff" d="M31 57 18 45h25z"/>
    </mask>
    <g mask="url(#d)">
      <path fill="#f8f2ff" d="M20 50h22v8H20z"/>
    </g>
  </g>
  <defs>
    <linearGradient id="b" x1="11" x2="53" y1="8" y2="58" gradientUnits="userSpaceOnUse">
      <stop stop-color="#3b1563"/>
      <stop offset=".58" stop-color="#2a0d47"/>
      <stop offset="1" stop-color="#190726"/>
    </linearGradient>
    <linearGradient id="c" x1="15" x2="49" y1="14" y2="50" gradientUnits="userSpaceOnUse">
      <stop stop-color="#fff" stop-opacity=".22"/>
      <stop offset="1" stop-color="#fff" stop-opacity="0"/>
    </linearGradient>
    <clipPath id="a">
      <path fill="#fff" d="M0 0h64v64H0z"/>
    </clipPath>
  </defs>
</svg>
